<svg width="1199" height="314" viewBox="0 0 1199 314" fill="none" xmlns="http://www.w3.org/2000/svg">
<path d="M0 0V299C0 299 174 184 330.5 209.5C487 235 502.5 354.5 815.5 299C1128.5 243.5 1199 199.5 1199 199.5V0H0Z" fill="url(#paint0_linear_345_13)"/>
<path d="M351.56 131.936C349 131.936 346.76 131.52 344.84 130.688C342.952 129.856 341.384 128.72 340.136 127.28C338.888 125.808 337.96 124.128 337.352 122.24C336.744 120.352 336.44 118.368 336.44 116.288C336.44 114.176 336.808 112.224 337.544 110.432C338.312 108.608 339.352 107.024 340.664 105.68C342.008 104.336 343.576 103.296 345.368 102.56C347.16 101.792 349.112 101.408 351.224 101.408C353.432 101.408 355.48 101.792 357.368 102.56C359.256 103.328 360.904 104.4 362.312 105.776C363.72 107.152 364.808 108.768 365.576 110.624C366.376 112.48 366.776 114.496 366.776 116.672C366.776 121.504 365.448 125.264 362.792 127.952C360.136 130.608 356.392 131.936 351.56 131.936ZM351.512 124.16C353.848 124.16 355.624 123.504 356.84 122.192C358.088 120.88 358.712 118.992 358.712 116.528C358.712 114.32 358.04 112.544 356.696 111.2C355.352 109.856 353.592 109.184 351.416 109.184C350.104 109.184 348.904 109.536 347.816 110.24C346.728 110.912 345.848 111.824 345.176 112.976C344.536 114.096 344.216 115.344 344.216 116.72C344.216 117.936 344.456 119.12 344.936 120.272C345.448 121.424 346.248 122.368 347.336 123.104C348.424 123.808 349.816 124.16 351.512 124.16ZM379.898 131.792C378.138 131.792 376.682 131.408 375.53 130.64C374.41 129.904 373.514 128.88 372.842 127.568C372.202 126.256 371.722 124.752 371.402 123.056C371.114 121.36 370.922 119.552 370.826 117.632C370.762 115.68 370.73 113.728 370.73 111.776C370.73 110.08 370.778 108.224 370.874 106.208C370.97 104.16 371.082 102.096 371.21 100.016C371.37 97.904 371.53 95.92 371.69 94.064C371.882 92.208 372.058 90.592 372.218 89.216L380.906 89.312C380.65 90.944 380.41 92.8 380.186 94.88C379.962 96.928 379.77 99.008 379.61 101.12C379.482 103.232 379.37 105.184 379.274 106.976C379.21 108.768 379.178 110.192 379.178 111.248C379.178 114.16 379.226 116.448 379.322 118.112C379.45 119.776 379.626 120.96 379.85 121.664C380.106 122.336 380.442 122.672 380.858 122.672C381.402 122.672 381.994 122.336 382.634 121.664C383.274 120.96 383.898 120.176 384.506 119.312L388.586 127.424C387.594 128.512 386.41 129.504 385.034 130.4C383.658 131.328 381.946 131.792 379.898 131.792ZM404.758 131.792C402.358 131.792 400.182 131.168 398.23 129.92C396.278 128.704 394.726 127.056 393.574 124.976C392.454 122.864 391.894 120.512 391.894 117.92C391.894 115.488 392.342 113.296 393.238 111.344C394.134 109.36 395.35 107.664 396.886 106.256C398.454 104.848 400.23 103.776 402.214 103.04C404.198 102.272 406.278 101.888 408.454 101.888C410.278 101.888 412.07 102.144 413.83 102.656C413.958 101.984 414.07 101.312 414.166 100.64L422.374 102.032C422.15 102.64 421.926 103.552 421.702 104.768C421.478 105.984 421.286 107.344 421.126 108.848C420.998 110.352 420.886 111.856 420.79 113.36C420.694 114.864 420.646 116.224 420.646 117.44C420.646 118.432 420.71 119.408 420.838 120.368C420.998 121.296 421.318 122.064 421.798 122.672C422.278 123.248 423.014 123.536 424.006 123.536H424.678L423.478 131.888C421.366 131.888 419.622 131.52 418.246 130.784C416.87 130.08 415.766 129.12 414.934 127.904C413.558 129.44 411.99 130.464 410.23 130.976C408.47 131.52 406.646 131.792 404.758 131.792ZM399.766 118.88C399.926 120.416 400.55 121.648 401.638 122.576C402.758 123.472 404.166 123.92 405.862 123.92C407.494 123.92 408.854 123.488 409.942 122.624C411.03 121.728 411.926 120.512 412.63 118.976C412.598 118.464 412.582 117.936 412.582 117.392C412.582 116.272 412.614 115.12 412.678 113.936C412.742 112.752 412.822 111.584 412.918 110.432C411.574 109.92 410.166 109.664 408.694 109.664C406.966 109.664 405.414 110.016 404.038 110.72C402.694 111.392 401.638 112.336 400.87 113.552C400.102 114.768 399.718 116.176 399.718 117.776C399.718 117.968 399.718 118.16 399.718 118.352C399.718 118.544 399.734 118.72 399.766 118.88ZM403.846 97.856L401.35 94.256C402.086 93.712 402.918 93.088 403.846 92.384C404.774 91.68 405.702 90.96 406.63 90.224C407.558 89.456 408.406 88.768 409.174 88.16C409.974 87.52 410.598 87.008 411.046 86.624L415.03 91.28C414.55 91.696 413.846 92.192 412.918 92.768C412.022 93.312 411.014 93.904 409.894 94.544C408.806 95.184 407.734 95.792 406.678 96.368C405.622 96.912 404.678 97.408 403.846 97.856ZM431.663 135.104L427.439 132.656C428.175 132.336 428.895 131.968 429.599 131.552C430.303 131.136 430.831 130.64 431.183 130.064H430.943C430.367 130.064 429.759 129.92 429.119 129.632C428.511 129.344 427.983 128.896 427.535 128.288C427.119 127.68 426.911 126.912 426.911 125.984C426.911 125.28 427.087 124.544 427.439 123.776C427.823 123.008 428.415 122.352 429.215 121.808C430.047 121.232 431.151 120.944 432.527 120.944C434.287 120.944 435.535 121.424 436.271 122.384C437.039 123.344 437.423 124.56 437.423 126.032C437.423 126.864 437.215 127.856 436.799 129.008C436.415 130.192 435.791 131.344 434.927 132.464C434.095 133.584 433.007 134.464 431.663 135.104ZM451.773 131.744C451.741 131.264 451.709 130.464 451.677 129.344C451.645 128.256 451.613 126.944 451.581 125.408C451.549 123.872 451.533 122.224 451.533 120.464C451.533 118.672 451.533 116.88 451.533 115.088C451.533 113.104 451.533 111.216 451.533 109.424C451.565 107.632 451.581 106.08 451.581 104.768C451.613 103.456 451.629 102.512 451.629 101.936L459.741 101.792C459.677 102.688 459.629 103.776 459.597 105.056C460.429 103.936 461.389 103.056 462.477 102.416C463.565 101.776 464.813 101.456 466.221 101.456C467.917 101.456 469.309 101.952 470.397 102.944C471.517 103.936 472.429 105.232 473.133 106.832C475.437 103.248 478.269 101.456 481.629 101.456C483.517 101.456 485.069 101.872 486.285 102.704C487.533 103.504 488.509 104.592 489.213 105.968C489.917 107.344 490.429 108.896 490.749 110.624C491.101 112.352 491.325 114.128 491.421 115.952C491.517 117.776 491.565 119.536 491.565 121.232C491.565 123.248 491.533 125.088 491.469 126.752C491.405 128.416 491.389 130 491.421 131.504H483.117C483.117 130.736 483.117 129.76 483.117 128.576C483.117 127.424 483.117 126.256 483.117 125.072C483.149 123.856 483.165 122.816 483.165 121.952C483.165 121.056 483.165 120.528 483.165 120.368C483.165 118.448 483.117 116.64 483.021 114.944C482.925 113.248 482.685 111.872 482.301 110.816C481.917 109.76 481.293 109.232 480.429 109.232C479.597 109.232 478.861 109.632 478.221 110.432C477.581 111.232 477.005 112.272 476.493 113.552C476.013 114.832 475.597 116.192 475.245 117.632C475.309 118.88 475.357 120.128 475.389 121.376C475.421 122.592 475.437 123.776 475.437 124.928C475.437 126.24 475.421 127.376 475.389 128.336C475.389 129.328 475.389 130.384 475.389 131.504H467.325C467.325 128.912 467.309 126.624 467.277 124.64C467.245 122.656 467.181 120.736 467.085 118.88C466.925 115.552 466.573 113.12 466.029 111.584C465.517 110.016 464.797 109.232 463.869 109.232C462.845 109.232 461.981 109.856 461.277 111.104C460.573 112.32 459.997 113.808 459.549 115.568C459.581 118.128 459.645 120.8 459.741 123.584C459.837 126.368 459.965 129.056 460.125 131.648L451.773 131.744ZM510.238 131.84C507.166 131.84 504.462 131.232 502.126 130.016C499.822 128.832 498.014 127.168 496.702 125.024C495.422 122.88 494.782 120.4 494.782 117.584C494.782 115.888 495.07 114.112 495.646 112.256C496.222 110.368 497.15 108.608 498.43 106.976C499.71 105.344 501.39 104.016 503.47 102.992C505.582 101.968 508.142 101.456 511.15 101.456C513.326 101.456 515.15 101.696 516.622 102.176C518.126 102.656 519.342 103.28 520.27 104.048C521.23 104.816 521.95 105.632 522.43 106.496C522.942 107.36 523.278 108.192 523.438 108.992C523.63 109.76 523.726 110.4 523.726 110.912C523.726 114.016 522.414 116.416 519.79 118.112C517.198 119.776 513.518 120.608 508.75 120.608C507.662 120.608 506.622 120.56 505.63 120.464C504.67 120.368 503.774 120.256 502.942 120.128C503.55 121.728 504.558 122.912 505.966 123.68C507.374 124.416 508.83 124.784 510.334 124.784C512.51 124.784 514.43 124.4 516.094 123.632C517.758 122.832 519.326 121.616 520.798 119.984L525.07 126.128C524.046 126.96 522.894 127.824 521.614 128.72C520.366 129.616 518.83 130.352 517.006 130.928C515.182 131.536 512.926 131.84 510.238 131.84ZM511.294 108.656C509.406 108.656 507.742 109.136 506.302 110.096C504.862 111.056 503.806 112.32 503.134 113.888C503.934 114.016 504.718 114.128 505.486 114.224C506.286 114.288 507.07 114.32 507.838 114.32C508.542 114.32 509.342 114.256 510.238 114.128C511.166 114 512.062 113.808 512.926 113.552C513.822 113.296 514.558 112.976 515.134 112.592C515.71 112.176 515.998 111.696 515.998 111.152C515.998 110.896 515.87 110.576 515.614 110.192C515.358 109.808 514.894 109.456 514.222 109.136C513.55 108.816 512.574 108.656 511.294 108.656ZM539.444 131.936C537.396 131.936 535.7 131.568 534.356 130.832C533.044 130.128 531.988 129.152 531.188 127.904C530.42 126.656 529.844 125.264 529.46 123.728C529.108 122.16 528.868 120.544 528.74 118.88C528.644 117.184 528.596 115.552 528.596 113.984C528.596 112.192 528.644 110.368 528.74 108.512C528.868 106.656 528.996 104.624 529.124 102.416L537.908 101.888C537.812 102.56 537.668 103.568 537.476 104.912C537.284 106.256 537.108 107.792 536.948 109.52C536.788 111.248 536.708 113.056 536.708 114.944C536.708 118.048 536.98 120.352 537.524 121.856C538.068 123.328 538.884 124.064 539.972 124.064C542.148 124.064 543.748 122.48 544.772 119.312C545.796 116.144 546.308 111.136 546.308 104.288V102.08L550.388 101.984L555.332 101.888C554.884 104.896 554.548 107.664 554.324 110.192C554.1 112.72 553.956 114.848 553.892 116.576C553.828 118.272 553.796 119.408 553.796 119.984C553.796 121.456 553.924 122.512 554.18 123.152C554.436 123.76 554.884 124.064 555.524 124.064C555.844 124.064 556.196 124 556.58 123.872C556.964 123.744 557.412 123.52 557.924 123.2L557.588 131.456C556.372 131.648 555.316 131.744 554.42 131.744C552.884 131.744 551.62 131.456 550.628 130.88C549.668 130.304 548.9 129.536 548.324 128.576C547.332 129.632 546.1 130.448 544.628 131.024C543.188 131.632 541.46 131.936 539.444 131.936ZM573.235 131.456C573.139 128.64 573.059 126.032 572.995 123.632C572.963 121.232 572.947 118.864 572.947 116.528C572.947 114.192 572.963 111.856 572.995 109.52C573.059 107.152 573.155 104.624 573.283 101.936H581.395C581.267 103.376 581.155 104.832 581.059 106.304C582.147 104.928 583.443 103.792 584.947 102.896C586.451 101.968 588.227 101.504 590.275 101.504C592.291 101.504 593.939 101.84 595.219 102.512C596.531 103.184 597.555 104.112 598.291 105.296C599.059 106.48 599.603 107.84 599.923 109.376C600.275 110.88 600.499 112.512 600.595 114.272C600.691 116 600.739 117.744 600.739 119.504C600.739 121.424 600.707 123.264 600.643 125.024C600.579 126.784 600.515 128.256 600.451 129.44C600.387 130.624 600.339 131.328 600.307 131.552H592.243C592.307 130.24 592.371 128.848 592.435 127.376C592.499 125.872 592.563 124.4 592.627 122.96C592.691 121.488 592.723 120.16 592.723 118.976C592.723 112.16 591.619 108.752 589.411 108.752C587.587 108.752 585.923 109.552 584.419 111.152C582.947 112.72 581.715 114.704 580.723 117.104C580.723 117.424 580.723 117.744 580.723 118.064C580.723 119.6 580.723 121.2 580.723 122.864C580.755 124.496 580.787 126.064 580.819 127.568C580.883 129.04 580.931 130.32 580.963 131.408L573.235 131.456ZM619.685 131.936C617.125 131.936 614.885 131.52 612.965 130.688C611.077 129.856 609.509 128.72 608.261 127.28C607.013 125.808 606.085 124.128 605.477 122.24C604.869 120.352 604.565 118.368 604.565 116.288C604.565 114.176 604.933 112.224 605.669 110.432C606.437 108.608 607.477 107.024 608.789 105.68C610.133 104.336 611.701 103.296 613.493 102.56C615.285 101.792 617.237 101.408 619.349 101.408C621.557 101.408 623.605 101.792 625.493 102.56C627.381 103.328 629.029 104.4 630.437 105.776C631.845 107.152 632.933 108.768 633.701 110.624C634.501 112.48 634.901 114.496 634.901 116.672C634.901 121.504 633.573 125.264 630.917 127.952C628.261 130.608 624.517 131.936 619.685 131.936ZM619.637 124.16C621.973 124.16 623.749 123.504 624.965 122.192C626.213 120.88 626.837 118.992 626.837 116.528C626.837 114.32 626.165 112.544 624.821 111.2C623.477 109.856 621.717 109.184 619.541 109.184C618.229 109.184 617.029 109.536 615.941 110.24C614.853 110.912 613.973 111.824 613.301 112.976C612.661 114.096 612.341 115.344 612.341 116.72C612.341 117.936 612.581 119.12 613.061 120.272C613.573 121.424 614.373 122.368 615.461 123.104C616.549 123.808 617.941 124.16 619.637 124.16ZM638.663 131.744C638.631 131.264 638.599 130.464 638.567 129.344C638.535 128.256 638.503 126.944 638.471 125.408C638.439 123.872 638.423 122.224 638.423 120.464C638.423 118.672 638.423 116.88 638.423 115.088C638.423 113.104 638.423 111.216 638.423 109.424C638.455 107.632 638.471 106.08 638.471 104.768C638.503 103.456 638.519 102.512 638.519 101.936L646.631 101.792C646.567 102.688 646.519 103.776 646.487 105.056C647.319 103.936 648.279 103.056 649.367 102.416C650.455 101.776 651.703 101.456 653.111 101.456C654.807 101.456 656.199 101.952 657.287 102.944C658.407 103.936 659.319 105.232 660.023 106.832C662.327 103.248 665.159 101.456 668.519 101.456C670.407 101.456 671.959 101.872 673.175 102.704C674.423 103.504 675.399 104.592 676.103 105.968C676.807 107.344 677.319 108.896 677.639 110.624C677.991 112.352 678.215 114.128 678.311 115.952C678.407 117.776 678.455 119.536 678.455 121.232C678.455 123.248 678.423 125.088 678.359 126.752C678.295 128.416 678.279 130 678.311 131.504H670.007C670.007 130.736 670.007 129.76 670.007 128.576C670.007 127.424 670.007 126.256 670.007 125.072C670.039 123.856 670.055 122.816 670.055 121.952C670.055 121.056 670.055 120.528 670.055 120.368C670.055 118.448 670.007 116.64 669.911 114.944C669.815 113.248 669.575 111.872 669.191 110.816C668.807 109.76 668.183 109.232 667.319 109.232C666.487 109.232 665.751 109.632 665.111 110.432C664.471 111.232 663.895 112.272 663.383 113.552C662.903 114.832 662.487 116.192 662.135 117.632C662.199 118.88 662.247 120.128 662.279 121.376C662.311 122.592 662.327 123.776 662.327 124.928C662.327 126.24 662.311 127.376 662.279 128.336C662.279 129.328 662.279 130.384 662.279 131.504H654.215C654.215 128.912 654.199 126.624 654.167 124.64C654.135 122.656 654.071 120.736 653.975 118.88C653.815 115.552 653.463 113.12 652.919 111.584C652.407 110.016 651.687 109.232 650.759 109.232C649.735 109.232 648.871 109.856 648.167 111.104C647.463 112.32 646.887 113.808 646.439 115.568C646.471 118.128 646.535 120.8 646.631 123.584C646.727 126.368 646.855 129.056 647.015 131.648L638.663 131.744ZM697.128 131.84C694.056 131.84 691.352 131.232 689.016 130.016C686.712 128.832 684.904 127.168 683.592 125.024C682.312 122.88 681.672 120.4 681.672 117.584C681.672 115.888 681.96 114.112 682.536 112.256C683.112 110.368 684.04 108.608 685.32 106.976C686.6 105.344 688.28 104.016 690.36 102.992C692.472 101.968 695.032 101.456 698.04 101.456C700.216 101.456 702.04 101.696 703.512 102.176C705.016 102.656 706.232 103.28 707.16 104.048C708.12 104.816 708.84 105.632 709.32 106.496C709.832 107.36 710.168 108.192 710.328 108.992C710.52 109.76 710.616 110.4 710.616 110.912C710.616 114.016 709.304 116.416 706.68 118.112C704.088 119.776 700.408 120.608 695.64 120.608C694.552 120.608 693.512 120.56 692.52 120.464C691.56 120.368 690.664 120.256 689.832 120.128C690.44 121.728 691.448 122.912 692.856 123.68C694.264 124.416 695.72 124.784 697.224 124.784C699.4 124.784 701.32 124.4 702.984 123.632C704.648 122.832 706.216 121.616 707.688 119.984L711.96 126.128C710.936 126.96 709.784 127.824 708.504 128.72C707.256 129.616 705.72 130.352 703.896 130.928C702.072 131.536 699.816 131.84 697.128 131.84ZM698.184 108.656C696.296 108.656 694.632 109.136 693.192 110.096C691.752 111.056 690.696 112.32 690.024 113.888C690.824 114.016 691.608 114.128 692.376 114.224C693.176 114.288 693.96 114.32 694.728 114.32C695.432 114.32 696.232 114.256 697.128 114.128C698.056 114 698.952 113.808 699.816 113.552C700.712 113.296 701.448 112.976 702.024 112.592C702.6 112.176 702.888 111.696 702.888 111.152C702.888 110.896 702.76 110.576 702.504 110.192C702.248 109.808 701.784 109.456 701.112 109.136C700.44 108.816 699.464 108.656 698.184 108.656ZM741.144 131.84C738.072 131.84 735.368 131.232 733.032 130.016C730.728 128.832 728.92 127.168 727.608 125.024C726.328 122.88 725.688 120.4 725.688 117.584C725.688 115.888 725.976 114.112 726.552 112.256C727.128 110.368 728.056 108.608 729.336 106.976C730.616 105.344 732.296 104.016 734.376 102.992C736.488 101.968 739.048 101.456 742.056 101.456C744.232 101.456 746.056 101.696 747.528 102.176C749.032 102.656 750.248 103.28 751.176 104.048C752.136 104.816 752.856 105.632 753.336 106.496C753.848 107.36 754.184 108.192 754.344 108.992C754.536 109.76 754.632 110.4 754.632 110.912C754.632 114.016 753.32 116.416 750.696 118.112C748.104 119.776 744.424 120.608 739.656 120.608C738.568 120.608 737.528 120.56 736.536 120.464C735.576 120.368 734.68 120.256 733.848 120.128C734.456 121.728 735.464 122.912 736.872 123.68C738.28 124.416 739.736 124.784 741.24 124.784C743.416 124.784 745.336 124.4 747 123.632C748.664 122.832 750.232 121.616 751.704 119.984L755.976 126.128C754.952 126.96 753.8 127.824 752.52 128.72C751.272 129.616 749.736 130.352 747.912 130.928C746.088 131.536 743.832 131.84 741.144 131.84ZM742.2 108.656C740.312 108.656 738.648 109.136 737.208 110.096C735.768 111.056 734.712 112.32 734.04 113.888C734.84 114.016 735.624 114.128 736.392 114.224C737.192 114.288 737.976 114.32 738.744 114.32C739.448 114.32 740.248 114.256 741.144 114.128C742.072 114 742.968 113.808 743.832 113.552C744.728 113.296 745.464 112.976 746.04 112.592C746.616 112.176 746.904 111.696 746.904 111.152C746.904 110.896 746.776 110.576 746.52 110.192C746.264 109.808 745.8 109.456 745.128 109.136C744.456 108.816 743.48 108.656 742.2 108.656ZM736.824 97.856L734.328 94.256C735.064 93.712 735.896 93.088 736.824 92.384C737.752 91.68 738.68 90.96 739.608 90.224C740.536 89.456 741.384 88.768 742.152 88.16C742.952 87.52 743.576 87.008 744.024 86.624L748.008 91.28C747.528 91.696 746.824 92.192 745.896 92.768C745 93.312 743.992 93.904 742.872 94.544C741.784 95.184 740.712 95.792 739.656 96.368C738.6 96.912 737.656 97.408 736.824 97.856ZM817.826 131.936C815.266 131.936 813.026 131.52 811.106 130.688C809.218 129.856 807.65 128.72 806.402 127.28C805.154 125.808 804.226 124.128 803.618 122.24C803.01 120.352 802.706 118.368 802.706 116.288C802.706 114.176 803.074 112.224 803.81 110.432C804.578 108.608 805.618 107.024 806.93 105.68C808.274 104.336 809.842 103.296 811.634 102.56C813.426 101.792 815.378 101.408 817.49 101.408C819.698 101.408 821.746 101.792 823.634 102.56C825.522 103.328 827.17 104.4 828.578 105.776C829.986 107.152 831.074 108.768 831.842 110.624C832.642 112.48 833.042 114.496 833.042 116.672C833.042 121.504 831.714 125.264 829.058 127.952C826.402 130.608 822.658 131.936 817.826 131.936ZM817.778 124.16C820.114 124.16 821.89 123.504 823.106 122.192C824.354 120.88 824.978 118.992 824.978 116.528C824.978 114.32 824.306 112.544 822.962 111.2C821.618 109.856 819.858 109.184 817.682 109.184C816.37 109.184 815.17 109.536 814.082 110.24C812.994 110.912 812.114 111.824 811.442 112.976C810.802 114.096 810.482 115.344 810.482 116.72C810.482 117.936 810.722 119.12 811.202 120.272C811.714 121.424 812.514 122.368 813.602 123.104C814.69 123.808 816.082 124.16 817.778 124.16ZM848.852 131.792C846.452 131.792 844.276 131.168 842.324 129.92C840.372 128.704 838.82 127.056 837.668 124.976C836.548 122.864 835.988 120.512 835.988 117.92C835.988 115.488 836.436 113.296 837.332 111.344C838.228 109.36 839.444 107.664 840.98 106.256C842.548 104.848 844.324 103.776 846.308 103.04C848.292 102.272 850.372 101.888 852.548 101.888C854.372 101.888 856.164 102.144 857.924 102.656C858.052 101.984 858.164 101.312 858.26 100.64L866.468 102.032C866.244 102.64 866.02 103.552 865.796 104.768C865.572 105.984 865.38 107.344 865.22 108.848C865.092 110.352 864.98 111.856 864.884 113.36C864.788 114.864 864.74 116.224 864.74 117.44C864.74 118.432 864.804 119.408 864.932 120.368C865.092 121.296 865.412 122.064 865.892 122.672C866.372 123.248 867.108 123.536 868.1 123.536H868.772L867.572 131.888C865.46 131.888 863.716 131.52 862.34 130.784C860.964 130.08 859.86 129.12 859.028 127.904C857.652 129.44 856.084 130.464 854.324 130.976C852.564 131.52 850.74 131.792 848.852 131.792ZM843.86 118.88C844.02 120.416 844.644 121.648 845.732 122.576C846.852 123.472 848.26 123.92 849.956 123.92C851.588 123.92 852.948 123.488 854.036 122.624C855.124 121.728 856.02 120.512 856.724 118.976C856.692 118.464 856.676 117.936 856.676 117.392C856.676 116.272 856.708 115.12 856.772 113.936C856.836 112.752 856.916 111.584 857.012 110.432C855.668 109.92 854.26 109.664 852.788 109.664C851.06 109.664 849.508 110.016 848.132 110.72C846.788 111.392 845.732 112.336 844.964 113.552C844.196 114.768 843.812 116.176 843.812 117.776C843.812 117.968 843.812 118.16 843.812 118.352C843.812 118.544 843.828 118.72 843.86 118.88ZM840.068 95.504C840.836 93.712 841.764 92.384 842.852 91.52C843.94 90.656 844.98 90.096 845.972 89.84C846.996 89.552 847.764 89.408 848.276 89.408C849.108 89.408 849.812 89.568 850.388 89.888C850.964 90.176 851.476 90.528 851.924 90.944C852.404 91.328 852.852 91.68 853.268 92C853.684 92.288 854.116 92.432 854.564 92.432C855.076 92.432 855.604 92.176 856.148 91.664C856.692 91.152 857.108 90.544 857.396 89.84L862.292 92.576C861.332 94.176 860.324 95.36 859.268 96.128C858.244 96.864 857.284 97.344 856.388 97.568C855.524 97.76 854.836 97.856 854.324 97.856C853.3 97.856 852.468 97.712 851.828 97.424C851.188 97.104 850.66 96.768 850.244 96.416C849.828 96.032 849.428 95.696 849.044 95.408C848.692 95.088 848.292 94.928 847.844 94.928C847.46 94.928 846.996 95.152 846.452 95.6C845.908 96.048 845.476 96.72 845.156 97.616L840.068 95.504ZM886.029 131.936C883.469 131.936 881.229 131.52 879.309 130.688C877.421 129.856 875.853 128.72 874.605 127.28C873.357 125.808 872.429 124.128 871.821 122.24C871.213 120.352 870.909 118.368 870.909 116.288C870.909 114.176 871.277 112.224 872.013 110.432C872.781 108.608 873.821 107.024 875.133 105.68C876.477 104.336 878.045 103.296 879.837 102.56C881.629 101.792 883.581 101.408 885.693 101.408C887.901 101.408 889.949 101.792 891.837 102.56C893.725 103.328 895.373 104.4 896.781 105.776C898.189 107.152 899.277 108.768 900.045 110.624C900.845 112.48 901.245 114.496 901.245 116.672C901.245 121.504 899.917 125.264 897.261 127.952C894.605 130.608 890.861 131.936 886.029 131.936ZM885.981 124.16C888.317 124.16 890.093 123.504 891.309 122.192C892.557 120.88 893.181 118.992 893.181 116.528C893.181 114.32 892.509 112.544 891.165 111.2C889.821 109.856 888.061 109.184 885.885 109.184C884.573 109.184 883.373 109.536 882.285 110.24C881.197 110.912 880.317 111.824 879.645 112.976C879.005 114.096 878.685 115.344 878.685 116.72C878.685 117.936 878.925 119.12 879.405 120.272C879.917 121.424 880.717 122.368 881.805 123.104C882.893 123.808 884.285 124.16 885.981 124.16ZM909.087 88.784L916.671 89.168C916.575 90.352 916.463 91.856 916.335 93.68C916.239 95.472 916.143 97.456 916.047 99.632C915.951 101.776 915.855 103.952 915.759 106.16C915.663 108.368 915.583 110.48 915.519 112.496C915.487 114.48 915.471 116.224 915.471 117.728C915.471 118.144 915.471 118.544 915.471 118.928C915.471 119.312 915.487 119.648 915.519 119.936L907.983 119.744C907.951 119.2 907.935 118.592 907.935 117.92C907.935 117.216 907.935 116.448 907.935 115.616C907.935 112.992 907.967 110.128 908.031 107.024C908.127 103.92 908.255 100.8 908.415 97.664C908.607 94.496 908.831 91.536 909.087 88.784ZM911.535 131.984C910.287 131.984 909.231 131.536 908.367 130.64C907.535 129.776 907.119 128.704 907.119 127.424C907.119 126.144 907.551 125.072 908.415 124.208C909.311 123.344 910.399 122.912 911.679 122.912C912.927 122.912 913.967 123.36 914.799 124.256C915.663 125.152 916.095 126.272 916.095 127.616C916.095 128.928 915.679 129.984 914.847 130.784C914.015 131.584 912.911 131.984 911.535 131.984Z" fill="white"/>
<path d="M772.5 83.5L792.5 79.5C792.5 79.5 799.029 127 790.029 161C781.029 195 754.528 210.5 736.028 192C717.528 173.5 719.029 144 719.029 144" stroke="white" stroke-width="8"/>
<defs>
<linearGradient id="paint0_linear_345_13" x1="0" y1="149.5" x2="1199" y2="149.5" gradientUnits="userSpaceOnUse">
<stop stop-color="#8D469E"/>
<stop offset="1" stop-color="#799C9C"/>
</linearGradient>
</defs>
</svg>
